<?xml version="1.0" ?><svg xmlns="http://www.w3.org/2000/svg" xmlns:xlink="http://www.w3.org/1999/xlink" version="1.1" viewBox="0 0 512 512" style="enable-background:new 0 0 512 512;" xml:space="preserve"><style type="text/css">
	.st0{fill:#231A15;}
	.st1{fill:#FFE000;}
	.st2{fill:#BCA100;}
	.st3{fill:#FC0000;}
	.st4{fill:#AA0000;}
	.st5{fill:#F94343;}
	.st6{fill:#FFFFFF;}
	.st7{fill:#A58E07;}
	.st8{opacity:0.44;}
	.st9{fill:#756204;}
	.st10{opacity:0.64;}
	.st11{opacity:0.38;}
	.st12{fill:#5D5004;}
	.st13{fill:#B7A100;}
	.st14{fill:#1D4DFC;}
	.st15{fill:#143CAF;}
	.st16{opacity:0.59;}
	.st17{opacity:0.52;}
	.st18{fill:#FF7F1F;}
	.st19{fill:#C4570C;}
	.st20{fill:#B29904;}
	.st21{fill:#87720A;}
	.st22{fill:#DDDDDD;}
	.st23{opacity:0.51;}
	.st24{fill:#878787;}
	.st25{fill:#727272;}
	.st26{opacity:0.33;}
	.st27{opacity:0.46;}
	.st28{fill:#25CBF2;}
	.st29{fill:#0A8FA5;}
	.st30{opacity:0.58;}
	.st31{fill:#04889E;}
	.st32{fill:#035A63;}
	.st33{opacity:0.65;}
	.st34{opacity:0.39;}
	.st35{fill:#AB0000;}
	.st36{fill:#1987A1;}
	.st37{fill:#3F1F0A;}
	.st38{fill:#4DEEFF;}
	.st39{fill:#21B9C1;}
	.st40{fill:#BBF9FF;}
	.st41{fill:#64ACAF;}
	.st42{fill:#089FB7;}
	.st43{opacity:0.47;}
	.st44{opacity:0.42;}
	.st45{fill:#DBF7FC;}
	.st46{fill:#B2E7ED;}
	.st47{fill:#0FA2BA;}
	.st48{opacity:0.54;}
	.st49{fill:#8E7716;}
	.st50{fill:#191401;}
	.st51{fill:#382E02;}
	.st52{fill:#605106;}
	.st53{fill:#AFACA0;}
	.st54{fill:#BC0404;}
	.st55{fill:#750000;}
	.st56{fill:#A08B0D;}
	.st57{fill:#5B4C05;}
	.st58{opacity:0.4;}
	.st59{opacity:0.5;}
	.st60{fill:#FF8383;}
	.st61{fill:#FFF0A6;}
	.st62{fill:#E2C227;}
	.st63{fill:#AA9205;}
	.st64{fill:#FFEA71;}
	.st65{opacity:0.22;}
	.st66{fill:#B19B00;}
	.st67{fill:#1989A4;}
	.st68{fill:#13A0B7;}
	.st69{fill:#C4A805;}
	.st70{fill:#FFF3A9;}
	.st71{fill:#846E03;}
	.st72{fill:#2D2502;}
	.st73{opacity:0.36;}
	.st74{fill:#4DD307;}
	.st75{fill:#328402;}
	.st76{fill:#97FF5A;}
	.st77{fill:#7A6500;}
	.st78{fill:#246001;}
	.st79{fill:#359100;}
	.st80{fill:#968022;}
	.st81{fill:#4F420B;}
	.st82{fill:#FFED83;}
	.st83{fill:#BAA335;}
	.st84{fill:#8D0991;}
	.st85{fill:#4B044F;}
	.st86{fill:#CE15CE;}
	.st87{fill:#897502;}
	.st88{fill:#493D01;}
	.st89{fill:#C9C9C9;}
	.st90{fill:#2D280E;}
	.st91{fill:#378C06;}
	.st92{fill:#183A03;}
	.st93{fill:#94FF55;}
	.st94{fill:#2E7F04;}
	.st95{fill:#63AB39;}
	.st96{fill:#AA5F04;}
	.st97{fill:#633502;}
	.st98{fill:#EF9014;}
	.st99{fill:#A05A07;}
	.st100{fill:#05616B;}
	.st101{fill:#033335;}
	.st102{fill:#0E94AA;}
	.st103{fill:#035D66;}
	.st104{opacity:0.27;}
	.st105{opacity:0.43;}
	.st106{fill:#FFF203;}
	.st107{fill:#FFA300;}
	.st108{fill:#2B3030;}
	.st109{opacity:0.28;}
	.st110{fill:#FCD17A;}
	.st111{fill:#AF853A;}
	.st112{opacity:0.31;}
	.st113{fill:#B641FF;}
	.st114{fill:#700FBC;}
	.st115{fill:#F2D0B1;}
	.st116{fill:#AF835F;}
	.st117{fill:#C17540;}
	.st118{fill:#F2BA94;}
	.st119{fill:#592909;}
	.st120{fill:#2B1204;}
	.st121{fill:#894818;}
	.st122{fill:#512609;}
	.st123{fill:#FF7F15;}
	.st124{fill:#A04A0A;}
	.st125{fill:#B7865E;}
	.st126{fill:#70350E;}
	.st127{fill:#3A1805;}
	.st128{fill:#C1521B;}
	.st129{fill:#FFC7AE;}
	.st130{fill:#FF717F;}
	.st131{fill:#6E2F0F;}
	.st132{fill:#AC8675;}
	.st133{opacity:0.25;}
	.st134{opacity:0.32;}
	.st135{fill:#FFFCC5;}
	.st136{fill:#D1CA78;}
	.st137{fill:#D37733;}
	.st138{fill:#A04F18;}
	.st139{fill:#0ABFBA;}
	.st140{fill:#057F79;}
	.st141{fill:#15F9F9;}
	.st142{fill:#09B2AD;}
	.st143{fill:#B2B2B2;}
	.st144{fill:#FFF755;}
	.st145{fill:#BCB121;}
	.st146{fill:#F90368;}
	.st147{opacity:0.49;}
	.st148{fill:#B50857;}
	.st149{fill:#FF76B4;}
	.st150{fill:#F23091;}
	.st151{fill:#FFF800;}
	.st152{fill:#C9BF05;}
	.st153{fill:#FF8500;}
	.st154{fill:#A35507;}
	.st155{fill:#AA6E50;}
	.st156{fill:#723C25;}
	.st157{fill:#EAD4B9;}
	.st158{fill:#AA8D6F;}
	.st159{fill:#B7A8A5;}
	.st160{fill:#84726F;}
	.st161{fill:#77645F;}
	.st162{fill:#51403C;}
	.st163{fill:#EABBA7;}
	.st164{fill:#BC7F69;}
	.st165{fill:#7C5039;}
	.st166{fill:#442619;}
	.st167{fill:#B7AE04;}
	.st168{fill:#BAB108;}
	.st169{fill:#7A7105;}
	.st170{fill:#352B23;}
	.st171{fill:#050403;}
	.st172{fill:#706255;}
	.st173{fill:#44382E;}
	.st174{fill:#634319;}
	.st175{fill:#35210A;}
	.st176{fill:#2D1C08;}
	.st177{fill:#0A0601;}
	.st178{fill:#9E7443;}
	.st179{fill:#704D2A;}
	.st180{fill:#D8A73A;}
	.st181{fill:#A0741C;}
	.st182{fill:#3F2F28;}
	.st183{fill:#211410;}
	.st184{fill:#FF326C;}
	.st185{fill:#BC0749;}
	.st186{fill:#68390E;}
	.st187{fill:#A5632D;}
	.st188{fill:#3D1E05;}
	.st189{fill:#331A06;}
	.st190{fill:#110801;}
	.st191{fill:#160A02;}
	.st192{fill:#663514;}
	.st193{opacity:0.29;}
	.st194{fill:#FC001F;}
	.st195{fill:#AF021F;}
	.st196{fill:#C48622;}
	.st197{fill:#8C5910;}
	.st198{fill:#846D64;}
	.st199{fill:#513B35;}
	.st200{fill:#5B4842;}
	.st201{fill:#332522;}
	.st202{fill:#47332C;}
	.st203{fill:#543E38;}
	.st204{fill:#1E1412;}
	.st205{fill:#604C43;}
	.st206{fill:#D3896C;}
	.st207{fill:#FF001F;}
	.st208{fill:#AF0824;}
	.st209{fill:#A37462;}
	.st210{fill:#5E3E34;}
	.st211{fill:#874A38;}
	.st212{fill:#4C2218;}
	.st213{fill:#5B2B20;}
	.st214{fill:#210C09;}
	.st215{fill:#99001A;}
	.st216{fill:#A08A07;}
	.st217{fill:#A08904;}
	.st218{fill:#5B4C02;}
	.st219{fill:#CECAB7;}
	.st220{fill:#727068;}
	.st221{fill:#42403A;}
	.st222{fill:#B2B0A6;}
	.st223{fill:#726F62;}
	.st224{fill:#6B4F45;}
	.st225{fill:#3A261F;}
	.st226{fill:#777468;}
	.st227{fill:#474436;}
	.st228{fill:#B78B7D;}
	.st229{fill:#845A4E;}
	.st230{fill:#3A372D;}
	.st231{fill:#43CFFF;}
	.st232{fill:#13A0BC;}
</style><g id="_x30_8"><g><g><path class="st0" d="M222.64,485.98c-4.28,0-8.22-2.76-9.55-7.04L209,465.72L70.57,221.82c-1.99-3.51-1.68-7.87,0.79-11.06     l140-180.86c1.84-2.38,4.66-3.8,7.67-3.88c3.02-0.08,5.89,1.22,7.85,3.51L381.16,210.4c2.73,3.2,3.17,7.77,1.09,11.43     L235.19,480.91c-1.79,3.15-5.12,5.06-8.69,5.06c-0.06,0-0.12,0-0.18,0c-0.62,0-1.23-0.06-1.84-0.17     C223.87,485.92,223.25,485.98,222.64,485.98z M91.25,217.74l135.16,238.13l69.32-122.13l8.7,4.94l-8.7-4.94l65.67-115.7     L219.64,51.87L91.25,217.74z"/></g><g><path class="st0" d="M339.01,482.84c-1.62,0-3.23-0.39-4.7-1.17c-0.35-0.18-0.68-0.38-1.01-0.6c-4.34-1.78-6.94-6.42-6-11.17     l1.39-7.12l-3.51-156.28c-0.09-4.03,2.25-7.72,5.94-9.36l116.85-51.94c2.75-1.22,5.91-1.14,8.59,0.22     c2.68,1.36,4.61,3.86,5.25,6.81l28.03,129.92c0.89,4.11-0.89,8.34-4.46,10.58l-141.05,88.58     C342.7,482.33,340.85,482.84,339.01,482.84z M345.33,312.71l3.2,142.35l59.22-37.19c0,0,0,0,0,0l61.06-38.35l-23.96-111.05     L345.33,312.71z"/></g><g><path class="st0" d="M144.23,478.09c-2.15,0-4.32-0.69-6.15-2.12l-4.12-3.21L27.62,421.79c-3.64-1.74-5.87-5.5-5.67-9.53     l4.94-96.56c0.15-3.01,1.65-5.78,4.08-7.56c2.43-1.78,5.53-2.37,8.44-1.6l97.2,25.53c4.07,1.07,7.03,4.57,7.42,8.76l11.5,125.41     c0.33,3.58-1.29,7.03-4.19,9.08c-0.25,0.18-0.51,0.35-0.77,0.5C148.75,477.32,146.5,478.09,144.23,478.09z M42.27,406.63     l91.74,43.97l-8.96-97.68l0,0l-0.3-3.28l-78.52-20.63L42.27,406.63z"/></g></g><g><g><g><g><g><polyline class="st28" points="373.55,216.89 226.5,475.97 251.09,251.82       "/></g><g><path class="st29" d="M342.69,251.82c-2.89,3.33-104.14,187.51-104.14,187.51s-2.63-7.24-6.15-17.14l-5.9,53.78l135.02-237.9        C353.56,243.5,344.29,249.97,342.69,251.82z"/></g></g><g><g><polyline class="st28" points="219.26,36.02 373.55,216.89 296.41,270.61       "/></g><g><polygon class="st29" points="340.76,210.8 300.02,233.94 296.41,270.61 373.55,216.89 219.26,36.02 222.64,46.3       "/></g></g><g><g><polyline class="st28" points="79.26,216.89 226.32,475.97 201.73,251.82       "/></g><g><polygon class="st29" points="134.37,240.33 188.32,409.03 226.32,475.97 201.73,251.82 121.24,228.86       "/></g></g><g><g><polyline class="st28" points="296.41,270.61 226.5,475.97 156.59,270.61       "/></g><g><path class="st29" d="M288.44,294l-101.84,3.58c0,0,32.98,128.81,42.6,170.44L288.44,294z"/></g></g><g><g><polygon class="st28" points="156.59,270.61 219.26,36.02 296.41,270.61       "/></g><g><polygon class="st29" points="159.03,270.61 296.41,270.61 219.26,36.02 244.33,230 179.73,230       "/></g></g><g><g><polyline class="st28" points="219.26,36.02 156.59,270.61 79.26,216.89       "/></g><g><polygon class="st29" points="206.56,52.43 137.24,216.89 101.19,188.56 79.26,216.89 156.58,270.61 219.26,36.02       "/></g></g></g><g class="st30"><path class="st6" d="M161.82,265.13l57.44-229.11l3.18,36.88 M222.64,46.3l71.36,217.02l6.01-29.38 M201.91,63.48L101.19,188.56      l10.52,8.26 M109.76,238.08l-30.5-21.19c0,0,107.6,184.88,107.34,186.76 M173.78,279.91l111.06-9.3H159.03l63.62,205.36       M303.12,279.91l58.4-51.06l-65.11,41.76l-51.68,151.82"/></g></g><g><g><g><g><polyline class="st28" points="480.06,384.26 339.01,472.84 410.51,369.01       "/></g><g><path class="st29" d="M455.61,393.28C453.3,394.16,354.65,458,354.65,458s0.62-4.26,1.51-10.07l-17.16,24.91l129.51-81.34        C463.16,392.07,456.89,392.8,455.61,393.28z"/></g></g><g><g><polyline class="st28" points="452.03,254.34 480.06,384.26 427.84,390.27       "/></g><g><polygon class="st29" points="465.53,372.58 439.34,373.17 427.84,390.27 480.06,384.26 452.03,254.34 450.97,260.29               "/></g></g><g><g><polyline class="st28" points="335.18,306.28 338.92,472.8 386.21,355.93       "/></g><g><polygon class="st29" points="356.1,332.42 337.95,429.77 338.92,472.8 386.21,355.93 352.67,323.3       "/></g></g><g><g><polyline class="st28" points="427.84,390.27 339.01,472.84 359.01,353.22       "/></g><g><path class="st29" d="M417.73,399.68l-51.09-25.23c0,0-17.9,72.15-24.19,95.2L417.73,399.68z"/></g></g><g><g><polygon class="st28" points="359.01,353.22 452.03,254.34 427.84,390.27       "/></g><g><polygon class="st29" points="360.21,353.87 427.84,390.27 452.03,254.34 412.97,356.48 381.16,339.36       "/></g></g><g><g><polyline class="st28" points="452.03,254.34 359.01,353.22 335.18,306.28       "/></g><g><polygon class="st29" points="441.43,259.05 363.73,321.64 353.48,298.14 335.18,306.28 359.01,353.22 452.03,254.34               "/></g></g></g><g class="st30"><path class="st6" d="M363.04,351.91l88.99-97.57l-8.21,19 M450.97,260.29L428.6,386.04l10.75-12.87 M436.21,263.25l-82.73,34.89      l2.99,6.85 M344.58,324.79l-9.4-18.52c0,0,3.98,119.53,3.35,120.39 M365.01,362.35l57.14,24.85l-61.94-33.34l-23.1,117.96       M428.69,396.63l42.28-9.66l-43.12,3.3l-65.68,61.05"/></g></g><g><g><g><g><polyline class="st28" points="134.07,341.75 145.57,467.16 100,383.43       "/></g><g><path class="st29" d="M131.8,361.32c-0.2,1.86,9.11,90.21,9.11,90.21s-2.66-1.88-6.27-4.46l10.93,20.09l-10.56-115.15        C133.56,355.81,131.91,360.29,131.8,361.32z"/></g></g><g><g><polyline class="st28" points="36.88,316.22 134.07,341.75 120.27,379.01       "/></g><g><polygon class="st29" points="121.23,347.55 112.67,365.41 120.27,379.01 134.07,341.75 36.88,316.22 40.53,318.97       "/></g></g><g><g><polyline class="st28" points="31.94,412.78 145.51,467.2 82.87,395.34       "/></g><g><polygon class="st29" points="56.72,407.61 116.16,453.14 145.51,467.2 82.87,395.34 49.4,406.8       "/></g></g><g><g><polyline class="st28" points="120.27,379.01 145.57,467.16 71.74,412.76       "/></g><g><path class="st29" d="M123.15,389.05l-34.48,25.82c0,0,42.53,36.74,55.92,48.87L123.15,389.05z"/></g></g><g><g><polygon class="st28" points="71.74,412.76 36.88,316.22 120.27,379.01       "/></g><g><polygon class="st29" points="72.59,412.17 120.27,379.01 36.88,316.22 92.39,377.49 69.97,393.08       "/></g></g><g><g><polyline class="st28" points="36.88,316.22 71.74,412.76 31.94,412.78       "/></g><g><polygon class="st29" points="36.43,324.98 52.06,398.78 32.71,397.65 31.94,412.78 71.74,412.76 36.88,316.22       "/></g></g></g><g class="st30"><path class="st6" d="M72.24,409.59l-35.36-93.38l10,12.03 M40.53,318.97l77.15,58.09l-5-11.65 M37.48,329.93l-4.76,67.72      l5.64,0.33 M47.64,412.77l-15.7,0.01c0,0,81.96,38.19,82.33,38.91 M79.95,411.84l36.3-30.03l-43.66,30.36l71.64,55.92       M124.84,380.62l7.95-31.81l-12.52,30.21l18.71,65.16"/></g></g></g></g></svg>