<?xml version="1.0" ?><svg xmlns="http://www.w3.org/2000/svg" xmlns:xlink="http://www.w3.org/1999/xlink" version="1.1" viewBox="0 0 512 512" style="enable-background:new 0 0 512 512;" xml:space="preserve"><style type="text/css">
	.st0{fill:#231A15;}
	.st1{fill:#FFE000;}
	.st2{fill:#BCA100;}
	.st3{fill:#FC0000;}
	.st4{fill:#AA0000;}
	.st5{fill:#F94343;}
	.st6{fill:#FFFFFF;}
	.st7{fill:#A58E07;}
	.st8{opacity:0.44;}
	.st9{fill:#756204;}
	.st10{opacity:0.64;}
	.st11{opacity:0.38;}
	.st12{fill:#5D5004;}
	.st13{fill:#B7A100;}
	.st14{fill:#1D4DFC;}
	.st15{fill:#143CAF;}
	.st16{opacity:0.59;}
	.st17{opacity:0.52;}
	.st18{fill:#FF7F1F;}
	.st19{fill:#C4570C;}
	.st20{fill:#B29904;}
	.st21{fill:#87720A;}
	.st22{fill:#DDDDDD;}
	.st23{opacity:0.51;}
	.st24{fill:#878787;}
	.st25{fill:#727272;}
	.st26{opacity:0.33;}
	.st27{opacity:0.46;}
	.st28{fill:#25CBF2;}
	.st29{fill:#0A8FA5;}
	.st30{opacity:0.58;}
	.st31{fill:#04889E;}
	.st32{fill:#035A63;}
	.st33{opacity:0.65;}
	.st34{opacity:0.39;}
	.st35{fill:#AB0000;}
	.st36{fill:#1987A1;}
	.st37{fill:#3F1F0A;}
	.st38{fill:#4DEEFF;}
	.st39{fill:#21B9C1;}
	.st40{fill:#BBF9FF;}
	.st41{fill:#64ACAF;}
	.st42{fill:#089FB7;}
	.st43{opacity:0.47;}
	.st44{opacity:0.42;}
	.st45{fill:#DBF7FC;}
	.st46{fill:#B2E7ED;}
	.st47{fill:#0FA2BA;}
	.st48{opacity:0.54;}
	.st49{fill:#8E7716;}
	.st50{fill:#191401;}
	.st51{fill:#382E02;}
	.st52{fill:#605106;}
	.st53{fill:#AFACA0;}
	.st54{fill:#BC0404;}
	.st55{fill:#750000;}
	.st56{fill:#A08B0D;}
	.st57{fill:#5B4C05;}
	.st58{opacity:0.4;}
	.st59{opacity:0.5;}
	.st60{fill:#FF8383;}
	.st61{fill:#FFF0A6;}
	.st62{fill:#E2C227;}
	.st63{fill:#AA9205;}
	.st64{fill:#FFEA71;}
	.st65{opacity:0.22;}
	.st66{fill:#B19B00;}
	.st67{fill:#1989A4;}
	.st68{fill:#13A0B7;}
	.st69{fill:#C4A805;}
	.st70{fill:#FFF3A9;}
	.st71{fill:#846E03;}
	.st72{fill:#2D2502;}
	.st73{opacity:0.36;}
	.st74{fill:#4DD307;}
	.st75{fill:#328402;}
	.st76{fill:#97FF5A;}
	.st77{fill:#7A6500;}
	.st78{fill:#246001;}
	.st79{fill:#359100;}
	.st80{fill:#968022;}
	.st81{fill:#4F420B;}
	.st82{fill:#FFED83;}
	.st83{fill:#BAA335;}
	.st84{fill:#8D0991;}
	.st85{fill:#4B044F;}
	.st86{fill:#CE15CE;}
	.st87{fill:#897502;}
	.st88{fill:#493D01;}
	.st89{fill:#C9C9C9;}
	.st90{fill:#2D280E;}
	.st91{fill:#378C06;}
	.st92{fill:#183A03;}
	.st93{fill:#94FF55;}
	.st94{fill:#2E7F04;}
	.st95{fill:#63AB39;}
	.st96{fill:#AA5F04;}
	.st97{fill:#633502;}
	.st98{fill:#EF9014;}
	.st99{fill:#A05A07;}
	.st100{fill:#05616B;}
	.st101{fill:#033335;}
	.st102{fill:#0E94AA;}
	.st103{fill:#035D66;}
	.st104{opacity:0.27;}
	.st105{opacity:0.43;}
	.st106{fill:#FFF203;}
	.st107{fill:#FFA300;}
	.st108{fill:#2B3030;}
	.st109{opacity:0.28;}
	.st110{fill:#FCD17A;}
	.st111{fill:#AF853A;}
	.st112{opacity:0.31;}
	.st113{fill:#B641FF;}
	.st114{fill:#700FBC;}
	.st115{fill:#F2D0B1;}
	.st116{fill:#AF835F;}
	.st117{fill:#C17540;}
	.st118{fill:#F2BA94;}
	.st119{fill:#592909;}
	.st120{fill:#2B1204;}
	.st121{fill:#894818;}
	.st122{fill:#512609;}
	.st123{fill:#FF7F15;}
	.st124{fill:#A04A0A;}
	.st125{fill:#B7865E;}
	.st126{fill:#70350E;}
	.st127{fill:#3A1805;}
	.st128{fill:#C1521B;}
	.st129{fill:#FFC7AE;}
	.st130{fill:#FF717F;}
	.st131{fill:#6E2F0F;}
	.st132{fill:#AC8675;}
	.st133{opacity:0.25;}
	.st134{opacity:0.32;}
	.st135{fill:#FFFCC5;}
	.st136{fill:#D1CA78;}
	.st137{fill:#D37733;}
	.st138{fill:#A04F18;}
	.st139{fill:#0ABFBA;}
	.st140{fill:#057F79;}
	.st141{fill:#15F9F9;}
	.st142{fill:#09B2AD;}
	.st143{fill:#B2B2B2;}
	.st144{fill:#FFF755;}
	.st145{fill:#BCB121;}
	.st146{fill:#F90368;}
	.st147{opacity:0.49;}
	.st148{fill:#B50857;}
	.st149{fill:#FF76B4;}
	.st150{fill:#F23091;}
	.st151{fill:#FFF800;}
	.st152{fill:#C9BF05;}
	.st153{fill:#FF8500;}
	.st154{fill:#A35507;}
	.st155{fill:#AA6E50;}
	.st156{fill:#723C25;}
	.st157{fill:#EAD4B9;}
	.st158{fill:#AA8D6F;}
	.st159{fill:#B7A8A5;}
	.st160{fill:#84726F;}
	.st161{fill:#77645F;}
	.st162{fill:#51403C;}
	.st163{fill:#EABBA7;}
	.st164{fill:#BC7F69;}
	.st165{fill:#7C5039;}
	.st166{fill:#442619;}
	.st167{fill:#B7AE04;}
	.st168{fill:#BAB108;}
	.st169{fill:#7A7105;}
	.st170{fill:#352B23;}
	.st171{fill:#050403;}
	.st172{fill:#706255;}
	.st173{fill:#44382E;}
	.st174{fill:#634319;}
	.st175{fill:#35210A;}
	.st176{fill:#2D1C08;}
	.st177{fill:#0A0601;}
	.st178{fill:#9E7443;}
	.st179{fill:#704D2A;}
	.st180{fill:#D8A73A;}
	.st181{fill:#A0741C;}
	.st182{fill:#3F2F28;}
	.st183{fill:#211410;}
	.st184{fill:#FF326C;}
	.st185{fill:#BC0749;}
	.st186{fill:#68390E;}
	.st187{fill:#A5632D;}
	.st188{fill:#3D1E05;}
	.st189{fill:#331A06;}
	.st190{fill:#110801;}
	.st191{fill:#160A02;}
	.st192{fill:#663514;}
	.st193{opacity:0.29;}
	.st194{fill:#FC001F;}
	.st195{fill:#AF021F;}
	.st196{fill:#C48622;}
	.st197{fill:#8C5910;}
	.st198{fill:#846D64;}
	.st199{fill:#513B35;}
	.st200{fill:#5B4842;}
	.st201{fill:#332522;}
	.st202{fill:#47332C;}
	.st203{fill:#543E38;}
	.st204{fill:#1E1412;}
	.st205{fill:#604C43;}
	.st206{fill:#D3896C;}
	.st207{fill:#FF001F;}
	.st208{fill:#AF0824;}
	.st209{fill:#A37462;}
	.st210{fill:#5E3E34;}
	.st211{fill:#874A38;}
	.st212{fill:#4C2218;}
	.st213{fill:#5B2B20;}
	.st214{fill:#210C09;}
	.st215{fill:#99001A;}
	.st216{fill:#A08A07;}
	.st217{fill:#A08904;}
	.st218{fill:#5B4C02;}
	.st219{fill:#CECAB7;}
	.st220{fill:#727068;}
	.st221{fill:#42403A;}
	.st222{fill:#B2B0A6;}
	.st223{fill:#726F62;}
	.st224{fill:#6B4F45;}
	.st225{fill:#3A261F;}
	.st226{fill:#777468;}
	.st227{fill:#474436;}
	.st228{fill:#B78B7D;}
	.st229{fill:#845A4E;}
	.st230{fill:#3A372D;}
	.st231{fill:#43CFFF;}
	.st232{fill:#13A0BC;}
</style><g id="_x34_0"><g><path class="st0" d="M50.08,471.2c-0.18-0.18-0.35-0.36-0.52-0.52c-0.05-0.05-0.1-0.1-0.15-0.15c-0.1-0.1-0.2-0.21-0.29-0.3    c-0.1-0.09-0.2-0.19-0.3-0.29c-0.05-0.05-0.1-0.1-0.15-0.15c-0.2-0.2-0.42-0.4-0.63-0.63l-0.09-0.09    c-0.28-0.29-0.55-0.56-0.83-0.86c-0.18-0.19-0.38-0.4-0.58-0.62l-0.29-0.33c-0.22-0.24-0.41-0.46-0.62-0.7l-0.35-0.4    c-0.23-0.26-0.44-0.52-0.65-0.78l-0.34-0.41c-0.24-0.3-0.48-0.6-0.72-0.9l-0.31-0.4c-0.24-0.32-0.52-0.69-0.8-1.08l-0.2-0.28    c-0.76-1.06-1.49-2.14-2.17-3.23c0-0.01-0.01-0.02-0.02-0.02c-0.34-0.55-0.68-1.11-1.02-1.69l-0.18-0.31    c-0.3-0.52-0.57-1.02-0.85-1.53l-0.25-0.48c-0.25-0.48-0.51-1-0.77-1.53l-0.22-0.46c-0.28-0.58-0.53-1.14-0.78-1.72l-0.19-0.43    c-0.96-2.26-1.8-4.62-2.47-7l-0.15-0.54c-0.18-0.65-0.34-1.3-0.5-1.96l-0.17-0.76c-0.13-0.6-0.26-1.23-0.38-1.87    c-0.05-0.29-0.1-0.57-0.15-0.85c-0.11-0.62-0.2-1.28-0.29-1.95l-0.02-0.14c-0.03-0.23-0.06-0.46-0.09-0.69    c-0.09-0.73-0.16-1.49-0.22-2.26c-0.02-0.21-0.04-0.4-0.05-0.58c-0.07-1.02-0.12-2-0.14-2.97c0-0.09,0-0.18,0-0.26    c-0.02-0.83-0.01-1.77,0.02-2.72c0.01-0.22,0.02-0.46,0.03-0.71l0.01-0.18c0.03-0.75,0.07-1.46,0.13-2.18    c0.03-0.32,0.06-0.64,0.09-0.96l0.02-0.18c0.07-0.69,0.14-1.35,0.23-2.03c0.05-0.41,0.11-0.81,0.17-1.22    c0.1-0.68,0.22-1.36,0.34-2.05l0.02-0.13c0.07-0.36,0.13-0.72,0.2-1.09c0.15-0.74,0.32-1.5,0.5-2.26l0.05-0.21    c0.06-0.29,0.13-0.57,0.2-0.86c0.3-1.19,0.6-2.29,0.93-3.36c2.54-8.37,10.52-23.56,50.37-58.61    c23.12-20.34,49.25-40.57,67.1-53.96l0.66-0.49c1.11-0.83,2.17-1.62,3.17-2.37c-0.08-0.42-0.15-0.82-0.21-1.21    c-0.02-0.14-0.05-0.32-0.07-0.49c-0.07-0.48-0.12-0.87-0.17-1.26l-0.05-0.5c-0.05-0.49-0.08-0.87-0.11-1.24l-0.03-0.46    c0-0.01-0.01-0.12-0.01-0.14c-0.02-0.37-0.04-0.74-0.05-1.1l-0.02-0.57c-0.01-0.41-0.01-0.78-0.01-1.15l0.01-0.49    c0.01-0.43,0.02-0.81,0.04-1.19l0.03-0.52c0.02-0.37,0.05-0.77,0.09-1.16l0.03-0.38c0.05-0.46,0.1-0.86,0.15-1.26l0.05-0.37    c0.06-0.4,0.13-0.84,0.2-1.29c0.01-0.06,0.02-0.13,0.03-0.18c0.52-2.87,1.36-5.7,2.5-8.41c0.04-0.09,0.08-0.19,0.12-0.28    c0.17-0.38,0.33-0.76,0.51-1.13c0,0,0,0,0-0.01c0-0.01,0.01-0.01,0.01-0.02c0.18-0.39,0.37-0.78,0.56-1.15    c0.01-0.02,0.02-0.03,0.02-0.05c0.66-1.31,1.4-2.58,2.2-3.83c-13.98-29.59-19.1-63.39-14.44-95.97    c5.17-36.16,21.57-68.94,47.4-94.78c65.47-65.47,172.01-65.47,237.48,0c11.79,11.79,21.71,25.18,29.49,39.82    c0.01,0.02,0.03,0.05,0.04,0.08c0.44,0.83,0.87,1.67,1.3,2.51l0.39,0.77c0.39,0.77,0.79,1.58,1.18,2.39l0.38,0.79    c0.4,0.83,0.79,1.67,1.18,2.53l0,0l0.12,0.27c1.28,2.82,2.49,5.69,3.61,8.57l0.24,0.62c0.32,0.83,0.63,1.67,0.94,2.52l0.32,0.87    c0.29,0.81,0.59,1.65,0.88,2.5l0.23,0.7c0.97,2.88,1.87,5.8,2.67,8.7l0.11,0.37c0.24,0.86,0.46,1.72,0.68,2.59l0.23,0.9    c0.21,0.84,0.41,1.67,0.61,2.51l0.21,0.93c0.2,0.86,0.39,1.72,0.58,2.59l0.09,0.45c0.6,2.86,1.13,5.78,1.58,8.67l0.15,0.98    c0.12,0.81,0.24,1.62,0.35,2.43l0.15,1.12c0.11,0.82,0.2,1.62,0.3,2.42l0.11,1.04c0.29,2.71,0.52,5.47,0.68,8.18l0.06,1.06    c0.04,0.79,0.07,1.56,0.1,2.32l0.05,1.32c0.02,0.77,0.04,1.52,0.06,2.27l0.02,1.36c0.01,0.74,0.01,1.5,0.01,2.26    c0,0.24,0,0.51-0.01,0.78l0,0.35c-0.02,1.49-0.05,2.97-0.1,4.44l-0.05,1.26c-0.03,0.68-0.07,1.37-0.11,2.06    c-0.03,0.57-0.06,1.09-0.1,1.6c-0.05,0.69-0.1,1.38-0.15,2.07c-0.04,0.53-0.09,1.06-0.13,1.59c-0.06,0.67-0.12,1.35-0.19,2.03    c-0.05,0.47-0.1,0.94-0.15,1.42l-0.03,0.23c-0.09,0.77-0.17,1.56-0.27,2.34c-0.12,0.98-0.25,1.96-0.39,2.93    c-0.07,0.46-0.14,0.93-0.21,1.4l-0.11,0.7c-0.08,0.51-0.16,1.02-0.24,1.54c-0.1,0.61-0.21,1.23-0.32,1.86    c-0.1,0.59-0.21,1.18-0.32,1.78c-0.12,0.63-0.23,1.24-0.35,1.85c-0.11,0.56-0.23,1.15-0.36,1.73l-0.1,0.49    c-0.1,0.46-0.19,0.91-0.29,1.37c-0.19,0.84-0.38,1.68-0.58,2.52c-0.17,0.73-0.35,1.45-0.53,2.18c-0.19,0.75-0.38,1.5-0.58,2.25    c-0.12,0.44-0.24,0.88-0.36,1.33l-0.08,0.29c-0.18,0.66-0.37,1.32-0.56,1.98c-0.16,0.54-0.32,1.08-0.48,1.63    c-0.2,0.68-0.41,1.34-0.62,2.01l-0.08,0.25c-0.14,0.44-0.27,0.87-0.42,1.31c-0.25,0.77-0.51,1.54-0.78,2.32l-0.41,1.2    c-0.4,1.13-0.81,2.25-1.22,3.37c-0.11,0.31-0.23,0.61-0.35,0.92l-0.15,0.39c-0.28,0.73-0.57,1.46-0.86,2.19    c-0.2,0.49-0.4,0.98-0.59,1.46c-0.28,0.69-0.57,1.38-0.87,2.08c-0.2,0.47-0.41,0.95-0.61,1.42c-0.32,0.74-0.66,1.49-1,2.23    l-0.54,1.2c-0.52,1.12-1.05,2.23-1.59,3.33l-0.42,0.83c-0.43,0.86-0.86,1.71-1.3,2.56c-0.18,0.34-0.36,0.68-0.54,1.02l-0.13,0.24    c-0.38,0.71-0.76,1.42-1.15,2.13c-0.23,0.42-0.47,0.85-0.72,1.29c-0.41,0.72-0.82,1.44-1.24,2.16l-0.68,1.17    c-0.55,0.93-1.11,1.84-1.68,2.76l-0.3,0.5c-0.68,1.08-1.36,2.15-2.06,3.21l-0.67,1c-0.49,0.74-0.99,1.48-1.5,2.21l-0.77,1.1    c-0.54,0.76-1.03,1.45-1.53,2.14c-0.29,0.4-0.55,0.76-0.82,1.12c-0.56,0.76-1.14,1.52-1.72,2.28l-0.64,0.83    c-0.79,1.01-1.59,2.03-2.41,3.04l-0.57,0.68c-0.64,0.78-1.29,1.55-1.95,2.33l-0.9,1.04c-0.57,0.66-1.15,1.32-1.74,1.97    c-0.32,0.35-0.63,0.71-0.95,1.06c-0.61,0.67-1.23,1.34-1.86,2.01l-0.86,0.92c-0.91,0.96-1.84,1.91-2.78,2.85    c-1.01,1.01-2.03,2-3.06,2.98c-0.23,0.22-0.46,0.43-0.69,0.64l-0.66,0.62c-0.58,0.55-1.17,1.09-1.76,1.63    c-0.29,0.26-0.58,0.52-0.87,0.77l-0.78,0.69c-0.51,0.45-1.01,0.9-1.53,1.34c-0.33,0.28-0.67,0.57-1.02,0.86l-0.72,0.61    c-0.49,0.42-0.99,0.83-1.48,1.24c-0.34,0.28-0.69,0.56-1.05,0.84l-0.8,0.64c-0.47,0.38-0.95,0.76-1.43,1.13    c-0.38,0.3-0.77,0.59-1.15,0.88l-0.72,0.54c-0.48,0.37-0.97,0.73-1.45,1.09c-0.39,0.29-0.79,0.57-1.18,0.85l-0.79,0.57    c-0.47,0.34-0.93,0.67-1.4,1c-0.42,0.29-0.85,0.58-1.27,0.87l-0.68,0.46c-0.49,0.33-0.97,0.67-1.47,0.99    c-0.45,0.3-0.9,0.59-1.36,0.88l-0.61,0.4c-0.5,0.32-0.99,0.64-1.49,0.96c-0.47,0.29-0.95,0.59-1.43,0.88l-0.55,0.34    c-0.51,0.31-1.02,0.62-1.53,0.93c-0.51,0.3-1.02,0.6-1.53,0.89l-0.43,0.25c-0.53,0.31-1.06,0.61-1.59,0.91    c-0.53,0.3-1.07,0.59-1.6,0.88l-0.46,0.25c-0.5,0.27-1.01,0.55-1.51,0.82c-0.61,0.32-1.21,0.63-1.82,0.94l-0.17,0.09    c-0.54,0.28-1.08,0.56-1.63,0.83c-0.63,0.31-1.26,0.62-1.89,0.92c-0.59,0.28-1.17,0.57-1.76,0.84c-0.64,0.3-1.29,0.59-1.93,0.89    c-0.58,0.26-1.16,0.53-1.75,0.78c-0.66,0.29-1.32,0.57-1.97,0.85c-0.59,0.25-1.16,0.49-1.74,0.73c-0.67,0.28-1.34,0.54-2.02,0.81    c-0.58,0.23-1.15,0.45-1.72,0.67c-0.69,0.26-1.38,0.52-2.07,0.77c-0.57,0.21-1.13,0.41-1.7,0.62c-0.71,0.25-1.41,0.49-2.11,0.73    c-0.56,0.19-1.11,0.38-1.67,0.56c-0.72,0.24-1.44,0.47-2.16,0.69c-0.56,0.18-1.11,0.35-1.66,0.51c-0.72,0.22-1.46,0.44-2.19,0.65    c-0.55,0.16-1.09,0.31-1.62,0.46c-0.76,0.21-1.51,0.41-2.27,0.61c-0.52,0.14-1.04,0.27-1.57,0.4c-0.78,0.2-1.55,0.39-2.32,0.57    c-0.51,0.12-1.03,0.24-1.54,0.36c-0.79,0.18-1.59,0.36-2.38,0.52c-0.49,0.1-0.99,0.2-1.48,0.3c-0.81,0.17-1.63,0.33-2.45,0.48    c-0.47,0.09-0.94,0.17-1.42,0.26c-0.84,0.15-1.69,0.3-2.53,0.43c-0.35,0.06-0.72,0.11-1.08,0.17l-0.26,0.04    c-0.87,0.13-1.74,0.26-2.61,0.38c-0.33,0.05-0.68,0.09-1.04,0.14l-0.25,0.03c-0.89,0.12-1.79,0.23-2.68,0.33l-1.19,0.13    c-0.91,0.1-1.85,0.19-2.78,0.28l-1.09,0.09c-0.95,0.08-1.92,0.16-2.9,0.22l-0.93,0.05c-1.03,0.06-2.05,0.12-3.07,0.16l-0.75,0.03    c-1.1,0.04-2.16,0.08-3.23,0.1l-0.56,0.01c-0.01,0-0.02,0-0.03,0c-1.13,0.02-2.26,0.03-3.39,0.02l-0.29,0    c-1.28-0.01-2.49-0.03-3.7-0.06c-0.04,0-0.08,0-0.12,0c-18.72-0.53-36.98-4.11-54.38-10.65c-3.26,2.32-6.66,4.18-10.19,5.55    c-1.01,0.39-2.03,0.75-3.05,1.07c-3.08,0.95-6.28,1.56-9.5,1.8c-0.1,0.01-0.21,0.02-0.31,0.02c-5.52,7.5-15.13,20.4-26.81,35.28    l-2.21,2.8c-1.48,1.88-3,3.79-4.54,5.71c-0.77,0.96-1.54,1.93-2.33,2.9c-2.35,2.92-4.75,5.88-7.18,8.84    c-0.81,0.99-1.63,1.98-2.45,2.97c-46.27,55.94-64.88,66.42-74.84,69.45c-0.02,0-0.03,0.01-0.05,0.01    c-1.06,0.32-2.14,0.62-3.31,0.91c-0.29,0.07-0.56,0.14-0.83,0.2l-0.25,0.06c-0.75,0.18-1.5,0.35-2.24,0.49    c-0.35,0.07-0.68,0.13-1.02,0.19l-0.2,0.04c-0.7,0.13-1.38,0.24-2.06,0.34c-0.42,0.06-0.83,0.12-1.24,0.17    c-0.66,0.09-1.33,0.16-2,0.23l-0.23,0.02c-0.31,0.03-0.61,0.06-0.92,0.08c-0.72,0.06-1.44,0.1-2.15,0.13l-0.19,0.01    c-0.24,0.01-0.49,0.02-0.73,0.03c-0.92,0.03-1.84,0.03-2.74,0.02c-0.05,0-0.1,0-0.14,0c-1.07-0.02-2.08-0.07-3.08-0.14    c-0.16-0.01-0.35-0.03-0.53-0.05c-0.8-0.06-1.56-0.14-2.31-0.23c-0.22-0.03-0.44-0.06-0.66-0.09l-0.15-0.02    c-0.65-0.09-1.31-0.19-1.95-0.3l-0.81-0.14c-0.65-0.12-1.27-0.25-1.88-0.38l-0.14-0.03c-0.22-0.05-0.45-0.1-0.66-0.15    c-0.62-0.15-1.28-0.31-1.93-0.49l-0.55-0.15c-2.38-0.67-4.74-1.5-7.02-2.48l-0.44-0.19c-0.54-0.23-1.1-0.49-1.66-0.76l-0.5-0.24    c-0.51-0.25-1.02-0.51-1.52-0.77l-0.45-0.24c-0.51-0.27-1.01-0.55-1.5-0.83l-0.31-0.18c-0.61-0.35-1.16-0.68-1.69-1.02    c-0.02-0.01-0.04-0.03-0.06-0.04c-1.09-0.68-2.17-1.41-3.22-2.16l-0.23-0.17c-0.46-0.34-0.83-0.61-1.18-0.88l-0.39-0.3    c-0.28-0.22-0.58-0.45-0.87-0.69l-0.35-0.28c-0.33-0.27-0.58-0.49-0.83-0.7l-0.38-0.32c-0.28-0.24-0.5-0.44-0.72-0.63l-0.3-0.27    c-0.28-0.25-0.48-0.45-0.69-0.64c-0.29-0.27-0.56-0.54-0.82-0.79l-0.12-0.12C50.15,471.27,50.12,471.23,50.08,471.2z     M65.19,455.26c0.03,0.03,0.07,0.07,0.09,0.09l0.29,0.29l0.03,0.03c0.01,0.01,0.1,0.1,0.12,0.11c0.15,0.15,0.3,0.3,0.47,0.45    l2,1.74c0.18,0.14,0.37,0.29,0.56,0.44l0.22,0.17c0.28,0.21,0.51,0.38,0.75,0.56l0.16,0.12c0.65,0.47,1.32,0.92,1.99,1.34    c0.03,0.02,0.05,0.03,0.07,0.04c0.35,0.22,0.71,0.43,1.08,0.65l0.06,0.03c0.01,0,0.09,0.05,0.1,0.05c0.36,0.2,0.67,0.38,0.99,0.55    l0.26,0.14c0.36,0.19,0.68,0.35,1,0.51l0.29,0.14c0.35,0.16,0.7,0.32,1.06,0.48c0.03,0.01,0.12,0.05,0.15,0.07l0.12,0.05    c1.4,0.6,2.87,1.12,4.35,1.54l0.33,0.09c0.41,0.11,0.81,0.22,1.22,0.31l0.48,0.11c0.36,0.08,0.75,0.16,1.16,0.23l0.51,0.09    c0.4,0.07,0.8,0.13,1.21,0.18l0.5,0.07c0.47,0.06,0.94,0.1,1.42,0.14l0.38,0.03c0.56,0.04,1.14,0.07,1.74,0.08    c0.06,0,0.12,0,0.19,0l0,0c0.6,0.01,1.2,0.01,1.81-0.01l0.6-0.03c0.45-0.02,0.91-0.04,1.37-0.08l0.77-0.07    c0.41-0.04,0.86-0.09,1.3-0.15c0.28-0.04,0.55-0.07,0.82-0.11c0.44-0.07,0.9-0.14,1.37-0.23l0.21-0.04    c0.2-0.04,0.41-0.07,0.61-0.11c0.5-0.1,1.01-0.22,1.53-0.34l0.75-0.17c0.76-0.19,1.54-0.4,2.33-0.64c0,0,0.01,0,0.01,0    c5.08-1.54,21.51-10.71,64.3-62.43c0.8-0.97,1.6-1.94,2.39-2.91c2.39-2.91,4.74-5.81,7.04-8.67c0.77-0.95,1.53-1.9,2.28-2.85    c1.51-1.9,3-3.77,4.46-5.62l2.17-2.76c14.33-18.25,25.48-33.45,29.62-39.14c2.2-3.03,5.79-4.72,9.52-4.5    c0.12,0.01,0.25,0.02,0.39,0.03c1.09,0.07,2.15,0.06,3.18-0.02c1.6-0.12,3.18-0.42,4.7-0.89c0.51-0.16,1.02-0.34,1.53-0.53    c3-1.17,5.96-3.1,8.79-5.73c3.16-2.94,7.75-3.75,11.73-2.07c16.74,7.05,34.48,10.89,52.72,11.4c0.03,0,0.06,0,0.1,0    c1.04,0.03,2.08,0.04,3.12,0.05l0.27,0c1.03,0,2.01,0,3-0.02l0.5,0c0.95-0.02,1.88-0.05,2.81-0.09l0.65-0.02    c0.91-0.04,1.79-0.09,2.67-0.14l0.84-0.05c0.83-0.06,1.67-0.12,2.52-0.19l0.92-0.08c0.82-0.07,1.63-0.16,2.44-0.24l1.03-0.11    c0.78-0.09,1.56-0.19,2.34-0.29l1.09-0.14c0.78-0.11,1.53-0.22,2.29-0.34l1.15-0.18c0.75-0.12,1.49-0.25,2.22-0.38l1.24-0.22    c0.71-0.13,1.41-0.27,2.12-0.42c0.44-0.09,0.87-0.18,1.29-0.27c0.7-0.15,1.39-0.3,2.08-0.46c0.44-0.1,0.88-0.2,1.33-0.31    c0.68-0.16,1.35-0.33,2.02-0.5c0.45-0.11,0.91-0.23,1.37-0.35c0.66-0.17,1.32-0.35,1.97-0.53c0.47-0.13,0.94-0.26,1.41-0.4    c0.63-0.18,1.27-0.37,1.91-0.57c0.49-0.15,0.96-0.29,1.44-0.44c0.62-0.19,1.24-0.39,1.87-0.6c0.49-0.16,0.97-0.32,1.46-0.49    c0.61-0.21,1.23-0.42,1.84-0.64c0.49-0.17,0.99-0.36,1.48-0.54c0.6-0.22,1.19-0.44,1.79-0.67c0.5-0.19,1-0.39,1.5-0.58    c0.57-0.23,1.16-0.46,1.75-0.7c0.51-0.21,1.01-0.42,1.51-0.63c0.56-0.24,1.14-0.49,1.72-0.74c0.5-0.22,1-0.45,1.51-0.68    c0.57-0.26,1.13-0.51,1.68-0.77c0.51-0.24,1.02-0.49,1.54-0.73c0.54-0.26,1.09-0.53,1.64-0.8c0.47-0.23,0.93-0.47,1.4-0.71    l0.14-0.07c0.56-0.29,1.09-0.56,1.61-0.83c0.43-0.23,0.86-0.46,1.28-0.69l0.46-0.25c0.45-0.25,0.91-0.49,1.36-0.75    c0.45-0.25,0.9-0.51,1.35-0.77l0.45-0.26c0.43-0.25,0.86-0.5,1.29-0.75c0.42-0.25,0.85-0.51,1.28-0.77l0.59-0.36    c0.39-0.24,0.78-0.48,1.17-0.72c0.42-0.27,0.84-0.53,1.25-0.8l0.65-0.42c0.37-0.24,0.75-0.48,1.12-0.73    c0.4-0.27,0.8-0.54,1.21-0.82l0.73-0.5c0.34-0.23,0.68-0.46,1.02-0.7c0.39-0.27,0.77-0.55,1.15-0.82l0.84-0.61    c0.31-0.22,0.63-0.45,0.94-0.68c0.4-0.3,0.8-0.6,1.2-0.9l0.79-0.6c0.3-0.23,0.61-0.46,0.91-0.69c0.39-0.3,0.78-0.61,1.16-0.92    l0.89-0.71c0.27-0.21,0.53-0.42,0.8-0.64c0.41-0.34,0.82-0.68,1.22-1.02l0.83-0.69c0.25-0.21,0.51-0.42,0.76-0.64    c0.43-0.37,0.85-0.74,1.26-1.11l0.89-0.78c0.21-0.18,0.41-0.36,0.62-0.55c0.5-0.45,0.99-0.91,1.49-1.38l1.22-1.13    c0.9-0.85,1.78-1.72,2.66-2.6c0.82-0.82,1.62-1.65,2.42-2.48l0.74-0.79c0.55-0.58,1.09-1.17,1.62-1.75l0.83-0.92    c0.51-0.57,1.01-1.14,1.51-1.72l0.79-0.91c0.56-0.66,1.13-1.34,1.68-2.02l0.49-0.6c0.71-0.88,1.41-1.76,2.1-2.64l0.55-0.72    c0.5-0.66,1-1.32,1.5-1.99l0.68-0.93c0.47-0.65,0.9-1.25,1.32-1.85l0.7-1.01c0.44-0.63,0.87-1.27,1.3-1.92l0.58-0.87    c0.6-0.92,1.2-1.85,1.78-2.78l0.27-0.44c0.49-0.8,0.98-1.6,1.46-2.4l0.59-1.01c0.36-0.61,0.72-1.24,1.07-1.87    c0.21-0.37,0.42-0.74,0.62-1.12c0.35-0.63,0.68-1.24,1.01-1.86l0.58-1.08c0.39-0.74,0.76-1.48,1.13-2.22l0.37-0.72    c0.47-0.95,0.93-1.92,1.38-2.89l0.47-1.05c0.29-0.64,0.58-1.28,0.87-1.93c0.18-0.42,0.36-0.83,0.53-1.24    c0.26-0.6,0.51-1.2,0.75-1.8c0.18-0.43,0.35-0.85,0.52-1.28c0.25-0.62,0.5-1.26,0.74-1.9l0.44-1.14c0.37-0.98,0.72-1.95,1.06-2.93    l0.35-1.04c0.23-0.67,0.46-1.34,0.68-2.02c0.12-0.37,0.23-0.73,0.35-1.09l0.08-0.26c0.18-0.58,0.36-1.17,0.54-1.75    c0.14-0.47,0.28-0.94,0.42-1.41c0.17-0.58,0.33-1.15,0.49-1.73l0.09-0.31c0.1-0.36,0.2-0.72,0.3-1.08    c0.18-0.66,0.34-1.32,0.51-1.97c0.16-0.63,0.31-1.26,0.46-1.89c0.17-0.73,0.34-1.46,0.51-2.19c0.08-0.37,0.16-0.75,0.24-1.12    l0.1-0.49c0.1-0.5,0.21-1,0.31-1.5c0.11-0.55,0.21-1.07,0.31-1.6c0.09-0.51,0.19-1.03,0.28-1.55c0.1-0.55,0.19-1.09,0.28-1.63    c0.07-0.44,0.14-0.86,0.2-1.29l0.11-0.74c0.06-0.38,0.12-0.75,0.17-1.13c0.12-0.86,0.23-1.71,0.34-2.55    c0.08-0.67,0.16-1.35,0.23-2.03l0.03-0.25c0.04-0.39,0.09-0.79,0.13-1.18c0.06-0.6,0.11-1.18,0.16-1.77    c0.04-0.46,0.08-0.92,0.12-1.38c0.05-0.61,0.09-1.21,0.13-1.81c0.03-0.44,0.05-0.87,0.08-1.31c0.04-0.69,0.07-1.28,0.1-1.86    l0.04-1.1c0.05-1.29,0.08-2.57,0.09-3.86l0.01-0.97c0-0.68,0-1.33-0.01-1.98l-0.01-1.2c-0.01-0.65-0.03-1.3-0.05-1.96l-0.04-1.16    c-0.03-0.65-0.05-1.33-0.09-2l-0.06-0.93c-0.14-2.38-0.34-4.78-0.6-7.14l-0.1-0.91c-0.08-0.69-0.17-1.39-0.26-2.09l-0.13-0.98    c-0.1-0.71-0.2-1.41-0.3-2.11l-0.13-0.82c-0.4-2.55-0.86-5.09-1.39-7.58l-0.08-0.39c-0.16-0.73-0.33-1.48-0.5-2.22l-0.19-0.82    c-0.17-0.71-0.34-1.44-0.53-2.16l-0.2-0.79c-0.19-0.75-0.39-1.49-0.59-2.24l-0.1-0.35c-0.69-2.49-1.47-5.03-2.31-7.54l-0.2-0.6    c-0.25-0.74-0.51-1.47-0.77-2.19l-0.28-0.78c-0.26-0.7-0.53-1.43-0.81-2.16l-0.2-0.52c-0.98-2.52-2.03-5.01-3.12-7.42l-0.09-0.19    c-0.38-0.83-0.72-1.55-1.06-2.27l-0.33-0.69c-0.33-0.68-0.67-1.38-1.03-2.08l-0.33-0.65c-0.37-0.73-0.74-1.44-1.11-2.15    c-0.01-0.02-0.02-0.03-0.03-0.05c-6.77-12.74-15.4-24.4-25.67-34.67c-56.92-56.92-149.53-56.92-206.45,0    c-45.52,45.52-55.92,114.39-25.89,171.37c2.17,4.13,1.5,9.18-1.68,12.59c-1.44,1.55-2.63,3.23-3.53,5    c-0.01,0.02-0.02,0.04-0.03,0.06c-0.09,0.17-0.17,0.35-0.26,0.53c0,0.01-0.01,0.02-0.01,0.02l0,0c-0.08,0.18-0.16,0.35-0.24,0.53    c-0.01,0.02-0.01,0.03-0.02,0.05c-0.52,1.22-0.9,2.49-1.14,3.77c-0.01,0.05-0.02,0.1-0.03,0.15c-0.03,0.19-0.07,0.4-0.1,0.61    c-0.01,0.05-0.02,0.15-0.03,0.21c-0.01,0.12-0.04,0.32-0.06,0.53l-0.01,0.16c-0.02,0.19-0.03,0.36-0.04,0.54l-0.01,0.11    c0,0.01,0,0.1-0.01,0.11c-0.01,0.17-0.02,0.35-0.02,0.53l0,0.25c0,0.17,0,0.35,0,0.52l0.01,0.28c0.01,0.15,0.01,0.33,0.03,0.52    l0.02,0.25c0.02,0.23,0.03,0.41,0.05,0.59l0.03,0.29c0.02,0.21,0.05,0.4,0.08,0.59l0.03,0.21c0.05,0.3,0.08,0.51,0.12,0.71    l0.05,0.26c0.06,0.29,0.11,0.53,0.16,0.76l0.07,0.3c0.16,0.65,0.34,1.31,0.55,1.97l0.12,0.35c0.07,0.22,0.16,0.48,0.25,0.74    l0.06,0.17c1.69,4.58,0.15,9.72-3.77,12.62l-4.71,3.48c-1.37,1.02-2.82,2.1-4.37,3.26l-0.65,0.49    C89.46,370.45,58.75,403.37,55.13,415.33c-0.24,0.8-0.45,1.58-0.65,2.35l-0.16,0.71c-0.13,0.54-0.24,1.05-0.34,1.55    c-0.05,0.23-0.08,0.45-0.13,0.68l-0.03,0.14c-0.08,0.46-0.16,0.92-0.23,1.37c-0.04,0.27-0.08,0.54-0.11,0.82    c-0.06,0.45-0.11,0.9-0.15,1.34l-0.07,0.73c-0.04,0.46-0.06,0.93-0.08,1.39L53.15,427c-0.02,0.62-0.02,1.22-0.01,1.81    c0,0.06,0,0.13,0,0.2c0.01,0.6,0.04,1.18,0.09,1.76l0.03,0.36c0.04,0.47,0.08,0.95,0.14,1.41l0.07,0.49    c0.06,0.42,0.11,0.82,0.18,1.21l0.1,0.54c0.07,0.38,0.15,0.77,0.23,1.15l0.11,0.48c0.09,0.39,0.2,0.8,0.3,1.19l0.11,0.39    c0.4,1.43,0.92,2.89,1.52,4.31l0.13,0.29c0.14,0.33,0.31,0.69,0.47,1.03l0.15,0.31c0.15,0.31,0.31,0.62,0.47,0.92l0.18,0.35    c0.15,0.28,0.32,0.59,0.49,0.89l0.11,0.2c0.23,0.4,0.45,0.76,0.66,1.11c0.01,0.01,0.01,0.02,0.02,0.03c0,0,0,0,0,0    c0.43,0.68,0.89,1.37,1.36,2.03c0,0.01,0.11,0.14,0.11,0.15c0.2,0.27,0.36,0.5,0.53,0.71l0.19,0.24c0.17,0.22,0.32,0.41,0.47,0.6    l1.72,1.98c0.17,0.18,0.32,0.34,0.47,0.49c0.01,0.01,0.1,0.1,0.11,0.12l0.03,0.03l0.29,0.29c0.03,0.03,0.07,0.07,0.1,0.1    l0.24,0.23c0.21,0.2,0.43,0.41,0.63,0.63L65.19,455.26C65.18,455.26,65.18,455.26,65.19,455.26z M223.95,357.2    C223.95,357.2,223.95,357.2,223.95,357.2C223.95,357.2,223.95,357.2,223.95,357.2z M226.06,335.37c-0.01,0-0.03,0-0.04,0    C226.03,335.37,226.05,335.37,226.06,335.37z M315.49,348.54L315.49,348.54L315.49,348.54z"/></g><g><g><g><path class="st100" d="M55.83,461.25c0,0,18.45,23.44,51.37,13.47c32.92-9.97,119.3-130.28,119.3-130.28l-51.6-51.6      c0,0-120.3,86.39-130.28,119.3s13.47,51.37,13.47,51.37"/></g><g><path class="st101" d="M226.5,344.44l-51.6-51.6c0,0-6.55,4.7-16.71,12.33c1.78,6.07,6.37,14.46,17.61,23.69      c22.44,18.45-1,46.88-41.4,86.27c-33.63,32.8-77.96,23.08-89.29-4.39c-0.18,0.47-0.35,0.94-0.48,1.4      c-8.6,28.37,7.61,45.98,12.26,50.31c4.33,4.65,21.94,20.86,50.31,12.26C140.11,464.74,226.5,344.44,226.5,344.44z"/></g></g><g><g><path class="st102" d="M179.52,260.29c0,0-30.92,19.44-0.37,55.97s59.47,38.53,78.92,13.09"/></g><g><path class="st103" d="M258.08,329.36l-3.58-3.15c-1.13,0.67-2.41,1.22-3.87,1.6c-19.96,5.18-39.22,0.02-54.66-13.39      c-12.71-11.03-21.09-26.37-27.12-41.93c-4.77,9.39-6.14,24.1,10.31,43.77C209.7,352.8,238.63,354.79,258.08,329.36z"/></g></g><g class="st104"><ellipse transform="matrix(0.7071 -0.7071 0.7071 0.7071 -43.8769 277.4482)" class="st6" cx="312.97" cy="191.69" rx="113.07" ry="113.07"/></g><g class="st73"><path class="st6" d="M220.69,94.94l192.9,5.1l11.56,20.36l-216.46-6.71l-1.94,21.71l214.59,4.76l9.97,9.97l-234.4-0.06     l-9.88,52.89l247.54,1.77l-12.26,37.51l-227.02-8.33l4.46,22.11l218.93,0.51l-16.75,16.75l-188.41,3.9     c0,0-22.77-2.19-26.76-10.17c-3.99-7.98-20.99-71.59-20.99-71.59s8.45-20.15,7.24-33.63c-1.21-13.48,10.25-27.95,12.5-31.69"/></g><g><g><path class="st28" d="M423.95,80.71c-61.2-61.2-160.77-61.2-221.96,0s-61.2,160.77,0,221.97s160.77,61.2,221.97,0      S485.15,141.9,423.95,80.71z M233.02,271.64c-44.08-44.08-44.08-115.82,0-159.9c44.08-44.08,115.82-44.08,159.9,0      s44.08,115.82,0,159.9C348.84,315.72,277.11,315.72,233.02,271.64z"/></g><g class="st105"><path class="st102" d="M451.55,117.98c-0.24-0.25-97.83-101.76-193.97-47.46c-96.25,54.36-108.01,178.8-51.02,236.52      c61.49,56.78,157.7,55.33,217.4-4.37C473.87,252.76,483.06,177.31,451.55,117.98z M226.03,264.65l0.31-0.3      c-37.28-44.38-35.06-110.88,6.67-152.61c42.53-42.53,110.8-44.02,155.14-4.48l0.14-0.13c0,0,62.11,47.39,56.46,112.68      S375.8,323.99,337.89,326.67C299.97,329.36,240.87,306.67,226.03,264.65z"/></g><g><path class="st6" d="M401.16,82.3c-0.97,0.89-2.11,1.48-3.42,1.77c-0.5,0.17-1,0.33-1.5,0.5c-1.67,0.43-3.34,0.43-5.01,0      c-0.79-0.32-1.58-0.64-2.37-0.96c-1.57-0.91-2.81-2.14-3.71-3.71c-0.32-0.79-0.64-1.58-0.96-2.37      c-0.37-1.25-0.43-2.51-0.16-3.76c0.06-1.29,0.43-2.5,1.12-3.62c0.64-1.22,1.52-2.19,2.66-2.91c0.97-0.89,2.11-1.48,3.42-1.77      c0.5-0.17,1-0.33,1.5-0.5c1.67-0.43,3.34-0.43,5.01,0c0.79,0.32,1.58,0.64,2.37,0.96c1.57,0.9,2.81,2.14,3.71,3.71      c0.32,0.79,0.64,1.58,0.96,2.37c0.37,1.25,0.43,2.5,0.16,3.76c-0.06,1.29-0.43,2.5-1.12,3.62      C403.18,80.61,402.29,81.58,401.16,82.3z M367.02,54.84c-3.49-3.49-8.93,1.93-5.43,5.43C365.09,63.77,370.52,58.34,367.02,54.84      z M320.97,328.31c-6.49-6.49-16.59,3.59-10.09,10.09C317.38,344.88,327.47,334.81,320.97,328.31z M289.55,331.8      c-2-2-5.1,1.1-3.1,3.1C288.45,336.9,291.55,333.8,289.55,331.8z"/></g></g></g></g></svg>